
 #     #                            
 #  #  # #####    ##   ##### #    # 
 #  #  # #    #  #  #    #   #    # 
 #  #  # #    # #    #   #   ###### 
 #  #  # #####  ######   #   #    # 
 #  #  # #   #  #    #   #   #    # 
  ## ##  #    # #    #   #   #    # 
                                    


File Name
The Reef 2010 1080p BRRip H264 Wrath.mp4

File Size
Format : MPEG-4
Format profile : Base Media
Codec ID : isom
File size : 3.72 GiB
Duration : 1h 27mn
Overall bit rate : 6 065 Kbps
Video
ID : 1
Format : AVC
Format/Info : Advanced Video Codec
Format profile : High@L4.1
Format settings, CABAC : Yes
Format settings, ReFrames : 3 frames
Codec ID : avc1
Codec ID/Info : Advanced Video Coding
Duration : 1h 27mn
Bit rate mode : Variable
Bit rate : 5 449 Kbps
Maximum bit rate : 25.0 Mbps
Width : 1 920 pixels
Height : 816 pixels
Display aspect ratio : 2.35:1
Frame rate mode : Constant
Frame rate : 23.976 fps
Resolution : 24 bits
Colorimetry : 4:2:0
Scan type : Progressive
Bits/(Pixel*Frame) : 0.145
Stream size : 3.34 GiB (90%)
Audio #1
ID : 2
Format : AAC
Format/Info : Advanced Audio Codec
Format version : Version 4
Format profile : LC
Format settings, SBR : No
Codec ID : 40
Duration : 1h 27mn
Bit rate mode : Variable
Bit rate : 198 Kbps
Maximum bit rate : 256 Kbps
Channel(s) : 2 channels
Channel positions : L R
Sampling rate : 48.0 KHz
Resolution : 16 bits
Stream size : 124 MiB (3%)
Audio #2
ID : 3
Format : AAC
Format/Info : Advanced Audio Codec
Format version : Version 4
Format profile : LC
Format settings, SBR : No
Codec ID : 40
Duration : 1h 27mn
Bit rate mode : Variable
Bit rate : 421 Kbps
Maximum bit rate : 490 Kbps
Channel(s) : 6 channels
Channel positions : Front: L C R, Rear: L R, LFE
Sampling rate : 48.0 KHz
Resolution : 16 bits
Stream size : 265 MiB (7%)

English SRT : External
Language : English


Release Date: 2011 (Japan) 

Genre: Drama | Horror | Thriller 

Plot: 

Luke welcomes his friend Matt and his girlfriend Suzie that come from London and Matt's sister and Luke's former girlfriend Kate that comes from Sydney to sail with him and the sailor Warren in a sailboat. However, the vessel hits an underwater rock and capsizes with an opening on her bottom. Luke advises that they should swim in the north direction to reach the Turtle Island, in Queensland, Australia, while they have strength since there is a current moving the boat in the opposite direction of land but Warren prefers to stay on the hull waiting for help since there are sharks in the water. The quartet swims, but they are hunted by a great white shark.

Cast: 
Damian Walshe-Howling ... Luke
Gyton Grantley ... Matt
Adrienne Pickering ... Suzie
Zoe Naylor ... Kate
Kieran Darcy-Smith ... Warren
Mark Simpson ... Shane






================================== 
http://thepiratebay.org/user/hiest
==================================






Screen Shots:
 
http://leetleech.org/images/49469795245309312693.png
 
http://leetleech.org/images/63826358805359230188.png
 
http://leetleech.org/images/98421929510257508703.png
 
http://leetleech.org/images/90982122385155823607.png


 #     #                            
 #  #  # #####    ##   ##### #    # 
 #  #  # #    #  #  #    #   #    # 
 #  #  # #    # #    #   #   ###### 
 #  #  # #####  ######   #   #    # 
 #  #  # #   #  #    #   #   #    # 
  ## ##  #    # #    #   #   #    # 
                                    

